<svg width="38" height="38" viewBox="0 0 38 38" fill="none" xmlns="http://www.w3.org/2000/svg">
<circle cx="19" cy="19" r="17.4167" fill="#DAF3FF"/>
<path d="M14.2437 17.4563H7.11869C5.36911 17.4563 3.95203 16.0392 3.95203 14.2896V7.12184C3.95203 5.37225 5.36911 3.95517 7.11869 3.95517H14.2437C15.9933 3.95517 17.4104 5.37225 17.4104 7.12184V14.2896C17.4104 16.0376 15.9933 17.4563 14.2437 17.4563Z" fill="url(#paint0_linear_10_464)"/>
<path d="M30.8687 17.4563H23.7437C21.9941 17.4563 20.577 16.0392 20.577 14.2896V7.12184C20.577 5.37225 21.9941 3.95517 23.7437 3.95517H30.8687C32.6183 3.95517 34.0354 5.37225 34.0354 7.12184V14.2896C34.0354 16.0376 32.6183 17.4563 30.8687 17.4563Z" fill="#6A52EB"/>
<path d="M14.2437 34.0385H7.11869C5.36911 34.0385 3.95203 32.6214 3.95203 30.8718V23.7041C3.95203 21.9545 5.36911 20.5374 7.11869 20.5374H14.2437C15.9933 20.5374 17.4104 21.9545 17.4104 23.7041V30.8718C17.4104 32.6214 15.9933 34.0385 14.2437 34.0385Z" fill="url(#paint1_linear_10_464)"/>
<path d="M30.8687 34.0385H23.7437C21.9941 34.0385 20.577 32.6214 20.577 30.8718V23.7041C20.577 21.9545 21.9941 20.5374 23.7437 20.5374H30.8687C32.6183 20.5374 34.0354 21.9545 34.0354 23.7041V30.8718C34.0354 32.6214 32.6183 34.0385 30.8687 34.0385Z" fill="url(#paint2_linear_10_464)"/>
<defs>
<linearGradient id="paint0_linear_10_464" x1="4.01808" y1="4.1705" x2="4.01808" y2="17.5403" gradientUnits="userSpaceOnUse">
<stop stop-color="#A7E3FF"/>
<stop offset="0.9974" stop-color="#0095DA"/>
</linearGradient>
<linearGradient id="paint1_linear_10_464" x1="3.85125" y1="20.5377" x2="3.85125" y2="34.2423" gradientUnits="userSpaceOnUse">
<stop stop-color="#F0D25A"/>
<stop offset="0.9993" stop-color="#F09E19"/>
</linearGradient>
<linearGradient id="paint2_linear_10_464" x1="20.5937" y1="20.957" x2="20.5937" y2="34.4259" gradientUnits="userSpaceOnUse">
<stop offset="2.50967e-07" stop-color="#F79A9D"/>
<stop offset="0.9971" stop-color="#EF3B42"/>
</linearGradient>
</defs>
</svg>
