<svg width="24" height="24" viewBox="0 0 24 24" fill="none" xmlns="http://www.w3.org/2000/svg">
<path fill-rule="evenodd" clip-rule="evenodd" d="M19.5405 11.1515C18.0605 11.5215 16.5125 11.5215 15.0335 11.1515C13.9585 10.8825 13.1195 10.0435 12.8505 8.9685C12.4805 7.4885 12.4805 5.9405 12.8505 4.4605C13.1195 3.3855 13.9585 2.5465 15.0335 2.2775C16.5135 1.9075 18.0615 1.9075 19.5405 2.2775C20.6155 2.5465 21.4545 3.3855 21.7235 4.4605C22.0935 5.9405 22.0935 7.4885 21.7235 8.9685C21.4545 10.0435 20.6155 10.8825 19.5405 11.1515ZM8.9685 12.8505C10.0435 13.1195 10.8825 13.9585 11.1515 15.0335C11.5215 16.5125 11.5215 18.0605 11.1515 19.5415C10.8825 20.6165 10.0435 21.4555 8.9685 21.7245C7.4885 22.0945 5.9405 22.0945 4.4605 21.7245C3.3855 21.4555 2.5465 20.6165 2.2775 19.5415C1.9075 18.0615 1.9075 16.5135 2.2775 15.0335C2.5465 13.9585 3.3855 13.1195 4.4605 12.8505C5.9405 12.4805 7.4885 12.4805 8.9685 12.8505ZM4.7145 17.2865C4.7145 18.3915 5.6095 19.2865 6.7145 19.2865C7.8195 19.2865 8.7145 18.3915 8.7145 17.2865C8.7145 16.1815 7.8195 15.2865 6.7145 15.2865C5.6095 15.2865 4.7145 16.1815 4.7145 17.2865ZM21.8355 15.5395C21.8035 15.3725 21.7655 15.1985 21.7235 15.0335C21.4545 13.9585 20.6155 13.1195 19.5405 12.8505C19.472 12.8334 19.408 12.8171 19.3473 12.8016L19.3469 12.8015C19.0001 12.713 18.7575 12.6511 18.3585 12.6145C18.3585 12.6145 18.2765 12.6065 18.2315 12.6065C17.6795 12.6065 17.2315 13.0545 17.2315 13.6065C17.2315 14.1275 17.6345 14.5425 18.1435 14.5885C18.1435 14.5885 18.6845 14.6975 19.0545 14.7905C19.4135 14.8805 19.6925 15.1595 19.7825 15.5185C19.8145 15.6465 19.8905 15.9135 19.8905 15.9135C19.9905 16.3605 20.3705 16.7025 20.8475 16.7025C21.3995 16.7025 21.8475 16.2545 21.8475 15.7025C21.848 15.6717 21.8429 15.6275 21.8389 15.593C21.8354 15.5625 21.8327 15.5395 21.8355 15.5395ZM21.7885 19.1545C21.7885 18.6025 21.3405 18.1545 20.7885 18.1545C20.3235 18.1545 19.9505 18.4785 19.8385 18.9085C19.8385 18.9085 19.7955 19.0105 19.7835 19.0555C19.6935 19.4145 19.4145 19.6935 19.0555 19.7835C18.4775 19.9275 17.8825 20.0015 17.2865 20.0015C16.6905 20.0015 16.0955 19.9285 15.5175 19.7835C15.1585 19.6935 14.8795 19.4145 14.7905 19.0555C14.5015 17.8985 14.4665 16.6655 14.7905 15.5185C14.9375 14.9965 15.5095 14.7755 15.5095 14.7755C15.9285 14.6565 16.2415 14.2865 16.2415 13.8295C16.2415 13.2775 15.7935 12.8295 15.2415 12.8295C15.1285 12.8295 14.9215 12.8815 14.9215 12.8815C14.8855 12.8911 14.8754 12.8953 14.8625 12.9006C14.8524 12.9048 14.8406 12.9098 14.8135 12.9185C13.8455 13.2405 13.1005 14.0335 12.8505 15.0325C12.4805 16.5125 12.4805 18.0605 12.8505 19.5405C13.1195 20.6155 13.9585 21.4545 15.0335 21.7235C15.7735 21.9085 16.5305 22.0005 17.2875 22.0005C18.0445 22.0005 18.8015 21.9075 19.5415 21.7235C20.6165 21.4545 21.4555 20.6155 21.7245 19.5405C21.7345 19.5015 21.7395 19.3995 21.7395 19.3995C21.7442 19.3809 21.7493 19.3624 21.7544 19.3439L21.7544 19.3438L21.7545 19.3438C21.7714 19.2827 21.7885 19.2212 21.7885 19.1545ZM6.7145 2.0005C5.9575 2.0005 5.2005 2.0935 4.4605 2.2775C3.3855 2.5465 2.5465 3.3855 2.2775 4.4605C1.9075 5.9405 1.9075 7.4885 2.2775 8.9685C2.5465 10.0435 3.3855 10.8825 4.4605 11.1515C5.2005 11.3365 5.9575 11.4285 6.7145 11.4285C7.4715 11.4285 8.2285 11.3355 8.9685 11.1515C10.0435 10.8825 10.8825 10.0435 11.1515 8.9685C11.5215 7.4885 11.5215 5.9405 11.1515 4.4605C10.8825 3.3855 10.0435 2.5465 8.9685 2.2775C8.2285 2.0935 7.4715 2.0005 6.7145 2.0005ZM6.7145 4.0005C7.3105 4.0005 7.9055 4.0735 8.4835 4.2185C8.8425 4.3085 9.1215 4.5875 9.2105 4.9465C9.4995 6.1035 9.4995 7.3265 9.2105 8.4835C9.1205 8.8425 8.8425 9.1215 8.4825 9.2105C7.9045 9.3555 7.3095 9.4285 6.7135 9.4285C6.1175 9.4285 5.5225 9.3555 4.9445 9.2105C4.5855 9.1205 4.3065 8.8415 4.2175 8.4825C3.9285 7.3255 3.9285 6.1025 4.2175 4.9455C4.3075 4.5865 4.5865 4.3075 4.9455 4.2175C5.5245 4.0745 6.1195 4.0005 6.7145 4.0005Z" fill="#858585"/>
</svg>
