<svg width="24" height="24" viewBox="0 0 24 24" fill="none" xmlns="http://www.w3.org/2000/svg">
<path fill-rule="evenodd" clip-rule="evenodd" d="M19.2902 3.24899C19.8574 3.65405 20.0132 4.44927 19.7115 5.1869C21.4976 7.46237 21.4523 11.1694 19.4159 14.4009L19.0911 14.9172C18.4575 15.9219 17.7505 16.8789 17.0093 17.8102C17.0871 17.8777 17.1666 17.9431 17.246 18.0085C17.3381 18.0844 17.4301 18.1601 17.5192 18.239C18.1498 18.799 18.2674 19.7143 17.7907 20.3646C17.3141 21.0149 16.3969 21.1916 15.6608 20.7756C11.3314 18.3274 7.27461 15.4304 3.56374 12.1384C2.9332 11.5784 2.81554 10.6631 3.29222 10.0128C3.7689 9.36255 4.68605 9.18584 5.42219 9.60181C5.52619 9.66033 5.6276 9.72284 5.72903 9.78537C5.8169 9.83953 5.90479 9.89371 5.99441 9.94532C6.65814 8.95948 7.35707 7.99648 8.1264 7.08809L8.52162 6.62148C10.9945 3.70071 14.5465 2.49845 17.2939 3.46045C17.9094 2.94619 18.723 2.84394 19.2902 3.24899ZM7.22107 19.4794C6.12712 18.7223 5.74989 17.3292 6.16373 16C7.727 17.1804 9.3402 18.2991 11 19.3518C9.81284 20.1441 8.31503 20.2376 7.22107 19.4794Z" fill="#858585"/>
</svg>
