<svg width="24" height="24" viewBox="0 0 24 24" fill="none" xmlns="http://www.w3.org/2000/svg">
<path fill-rule="evenodd" clip-rule="evenodd" d="M19.497 9.74228C20.222 10.9733 20.982 12.1843 21.819 13.3463C22.13 13.7773 22.032 14.3793 21.6 14.6913C21.563 14.7183 21.523 14.7423 21.483 14.7633C21.065 14.9823 20.54 14.8663 20.256 14.4723C17.563 10.7303 15.418 6.63028 13.88 2.28428C13.703 1.78328 13.966 1.23728 14.467 1.05528C14.968 0.878277 15.519 1.14028 15.696 1.64228C16.133 2.87728 16.637 4.08528 17.175 5.27628C18.231 5.04928 19.359 5.48628 19.954 6.46028C20.615 7.54228 20.394 8.91428 19.497 9.74228ZM4.552 9.12528C6.387 7.14128 8.489 5.42228 10.797 4.01728L12.999 2.67728C14.506 6.91528 16.584 10.9203 19.171 14.5973L16.771 15.6233C15.932 15.9823 15.072 16.2863 14.204 16.5643C14.725 17.2463 15.276 17.9053 15.88 18.5203C16.61 19.2633 16.634 20.4473 15.956 21.2383C15.185 22.1383 13.804 22.1923 12.974 21.3463C11.843 20.1933 10.847 18.9283 9.961 17.5813C9.85212 17.599 9.74357 17.618 9.63506 17.637C9.41968 17.6747 9.20445 17.7123 8.987 17.7403C7.762 17.8963 6.564 17.5933 5.57 16.9593C5.203 17.2123 4.759 17.3613 4.28 17.3613C3.021 17.3613 2 16.3403 2 15.0813C2 14.2083 2.495 13.4593 3.215 13.0763C3.091 11.6563 3.544 10.2153 4.552 9.12528Z" fill="#858585"/>
</svg>
