<svg width="24" height="24" viewBox="0 0 24 24" fill="none" xmlns="http://www.w3.org/2000/svg">
<path fill-rule="evenodd" clip-rule="evenodd" d="M12.3478 9.91251C12.8308 10.0325 13.2988 10.2545 13.7088 10.5765L14.2908 11.0345C14.3396 11.0731 14.3879 11.1128 14.4363 11.1525L14.4363 11.1525C14.4831 11.191 14.5301 11.2296 14.5778 11.2675L17.4898 8.35551C17.7658 8.56751 18.1178 8.67551 18.5008 8.64351L19.1808 8.58751C19.9478 8.52351 20.6608 7.94651 20.9078 7.18651L21.9638 3.94951C22.1538 3.36751 22.0368 2.77851 21.6558 2.39751C21.2748 2.01651 20.6858 1.89951 20.1038 2.08951L16.8668 3.14551C16.1068 3.39351 15.5288 4.10551 15.4658 4.87251L15.4098 5.55251C15.3778 5.93451 15.4858 6.28751 15.6978 6.56351L12.3478 9.91251ZM20.2252 17.6371C18.1536 15.5657 15.9619 13.6193 13.6671 11.813L13.0847 11.3547C12.6253 10.9924 12.0959 10.8083 11.5955 10.8013L8.93547 8.14142C9.616 6.85852 9.57897 5.25439 8.80737 4.01452C7.90567 2.56549 6.3995 1.90903 4.93036 2.0101C4.50903 2.03912 4.33389 2.5735 4.63413 2.87071C5.33167 3.5612 6.31143 4.53288 6.31143 4.53288C6.48156 4.703 6.57163 4.93917 6.56062 5.18934L6.50658 6.52428C6.48557 7.04365 6.04322 7.48596 5.52382 7.50698L4.18878 7.56102C3.93859 7.57102 3.7024 7.48096 3.53227 7.31184C3.53227 7.31184 2.55952 6.33115 1.86898 5.63366C1.57275 5.33445 1.03933 5.50757 1.01031 5.92786C0.929249 7.09469 1.32556 8.28653 2.21925 9.17916C3.54928 10.5091 5.54083 10.7423 7.12706 9.92168L9.80214 12.5966C9.80915 13.0969 9.99329 13.6263 10.3556 14.0856L10.8139 14.668C12.6203 16.9626 14.5668 19.1542 16.6385 21.2256C17.35 21.9371 18.3628 22.1893 19.1504 21.8521C19.924 21.5209 20.5215 20.9234 20.8527 20.1499C21.189 19.3613 20.9368 18.3496 20.2252 17.6371ZM9.57584 14.7095L10.0338 15.2915C10.2244 15.5335 10.4204 15.7726 10.6162 16.0115C10.6979 16.1111 10.7796 16.2107 10.8608 16.3105C9.44484 18.0065 7.97684 19.6605 6.41084 21.2265C5.69984 21.9385 4.68884 22.1905 3.90084 21.8525C3.12784 21.5215 2.53084 20.9245 2.19984 20.1515C1.86284 19.3635 2.11484 18.3525 2.82584 17.6415C4.59984 15.8675 6.47784 14.2065 8.41784 12.6255L8.84584 13.0535C8.93584 13.6405 9.18784 14.2165 9.57584 14.7095Z" fill="#858585"/>
</svg>
