<svg width="24" height="24" viewBox="0 0 24 24" fill="none" xmlns="http://www.w3.org/2000/svg">
<path d="M19.6426 6.49562L16.5056 3.35862C15.9266 2.77962 14.9306 2.91862 14.5716 3.65362C14.2336 4.34462 14.0936 5.08262 14.1396 5.78462L13.9896 5.86962C12.4946 6.71762 11.1146 7.77262 9.8546 8.96262C8.4136 8.64862 6.8186 8.84662 5.3476 9.56562C4.1026 10.1746 3.8686 11.8606 4.8476 12.8406L6.2946 14.2876L3.2316 18.2266C2.8916 18.6646 2.9296 19.2866 3.3216 19.6786C3.7136 20.0706 4.3356 20.1096 4.7736 19.7686L8.7126 16.7056L10.1596 18.1526C11.1396 19.1326 12.8256 18.8976 13.4346 17.6526C14.1536 16.1816 14.3516 14.5866 14.0376 13.1456C15.2276 11.8856 16.2826 10.5056 17.1306 9.01062L17.2156 8.86062C17.9176 8.90762 18.6556 8.76662 19.3466 8.42862C20.0826 8.06962 20.2216 7.07362 19.6426 6.49562Z" fill="#858585"/>
</svg>
