<svg width="24" height="24" viewBox="0 0 24 24" fill="none" xmlns="http://www.w3.org/2000/svg">
<path fill-rule="evenodd" clip-rule="evenodd" d="M14.817 5.005C9.861 5.056 5.846 8.621 5.846 13.001C5.846 14.131 6.117 15.205 6.597 16.181L5.331 16.884C4.618 17.28 3.79 16.593 4.048 15.819L4.634 14.062C2.459 12.924 1 10.862 1 8.5C1 4.91 4.358 2 8.5 2C11.156 2 13.484 3.2 14.817 5.005ZM20.13 18.349C21.885 17.065 23.002 15.147 23.002 13C23.002 9.134 19.386 6 14.925 6C10.464 6 6.848 9.134 6.848 13C6.848 16.866 10.464 20 14.925 20C15.335 20 15.734 19.965 16.127 19.914L19.672 21.883C20.385 22.279 21.213 21.592 20.955 20.818L20.13 18.349ZM10.924 14.501C10.096 14.501 9.424 13.829 9.424 13.001C9.424 12.173 10.096 11.501 10.924 11.501C11.752 11.501 12.424 12.173 12.424 13.001C12.424 13.829 11.752 14.501 10.924 14.501ZM13.424 13.001C13.424 13.829 14.096 14.501 14.924 14.501C15.752 14.501 16.424 13.829 16.424 13.001C16.424 12.173 15.752 11.501 14.924 11.501C14.096 11.501 13.424 12.173 13.424 13.001ZM18.924 14.501C18.096 14.501 17.424 13.829 17.424 13.001C17.424 12.173 18.096 11.501 18.924 11.501C19.752 11.501 20.424 12.173 20.424 13.001C20.424 13.829 19.752 14.501 18.924 14.501Z" fill="#858585"/>
</svg>
