<svg width="18" height="18" viewBox="0 0 18 18" fill="none" xmlns="http://www.w3.org/2000/svg">
<path fill-rule="evenodd" clip-rule="evenodd" d="M12.4335 10.9065C13.8885 12.144 15.207 13.536 16.3245 15.09C16.5818 15.4478 16.5465 15.9352 16.2413 16.2405C15.9353 16.5465 15.4485 16.5818 15.09 16.3245C13.5353 15.207 12.144 13.8885 10.9065 12.4335C9.9375 13.1047 8.7645 13.5 7.5 13.5C4.19175 13.5 1.5 10.8082 1.5 7.5C1.5 4.19175 4.19175 1.5 7.5 1.5C10.8082 1.5 13.5 4.19175 13.5 7.5C13.5 8.76525 13.104 9.93825 12.4335 10.9065ZM7.49925 3C5.0175 3 2.99925 5.01825 2.99925 7.5C2.99925 9.98175 5.0175 12 7.49925 12C9.981 12 11.9993 9.98175 11.9993 7.5C11.9993 5.01825 9.981 3 7.49925 3Z" fill="#858585"/>
</svg>
